<?xml version="1.0" standalone="no"?><!DOCTYPE svg PUBLIC "-//W3C//DTD SVG 1.1//EN" "http://www.w3.org/Graphics/SVG/1.1/DTD/svg11.dtd"><svg t="1521960866320" class="icon" style="" viewBox="0 0 1024 1024" version="1.1" xmlns="http://www.w3.org/2000/svg" p-id="1065" xmlns:xlink="http://www.w3.org/1999/xlink" width="200" height="200"><defs><style type="text/css"></style></defs><path d="M504.794274 175.533095c-14.661269 0-26.52574 11.879589-26.52574 26.522717l0 318.136539c0 14.645143 11.864471 26.509614 26.52574 26.509614l265.133435 0c14.637081 0 26.51163-11.864471 26.51163-26.509614 0-14.645143-11.87455-26.509614-26.51163-26.509614L531.29381 493.682736 531.29381 202.055812C531.29381 187.413692 519.432362 175.533095 504.794274 175.533095zM1000.935169 873.266189c-10.284154-11.225491-26.960126-11.225491-37.257382 0L902.474774 940.131332 902.474774 705.770739c0-14.635065-11.848345-26.506591-26.524732-26.506591-14.637081 0-26.51163 11.872534-26.51163 26.506591l0 234.327334-61.189911-66.831884c-10.271052-11.225491-26.973228-11.225491-37.24428 0-10.284154 11.23053-10.284154 29.444489 0 40.683082l93.081472 101.670414c6.855431 7.487356 16.548982 9.976758 25.302204 7.482317 2.099362 0.535171 4.297494 0.821402 6.563153 0.821402 2.276745 0 4.484955-0.287239 6.591373-0.824426 8.748183 2.500489 18.441734 0.012094 25.300188-7.479293l93.094574-101.670414C1011.229402 902.710678 1011.229402 884.496719 1000.935169 873.266189zM667.744298 944.675751l-1.066311-3.730072c-50.243596 19.343764-104.822985 29.954463-161.883713 29.954463-248.902936 0-450.701745-201.78873-450.701745-450.706784S255.892346 69.485567 504.794274 69.485567c248.919062 0 450.70376 201.787722 450.70376 450.706784 0 17.936798-1.054217 35.626672-3.091092 53.016205l3.091092 0c0 14.645143 11.87455 26.522717 26.51163 26.522717 14.635065 0 26.51163-11.877573 26.51163-26.522717 0-3.432755-0.661153-6.711308-1.85143-9.723787 1.216481-14.270221 1.85143-28.706739 1.85143-43.292419 0-278.206325-225.511625-503.722989-503.728029-503.722989-278.203301 0-503.739115 225.516665-503.739115 503.722989 0 278.198262 225.534806 503.731052 503.739115 503.731052 56.75434 0 111.310548-9.397242 162.211266-26.701107 3.999169-0.472684 7.722186-1.830265 10.970504-3.874195 1.109649-0.406166 2.221313-0.810316 3.327938-1.224544l-0.287239-1.003824c5.735704-4.864917 9.375069-12.117443 9.375069-20.220598C690.391811 957.573274 680.570262 946.553385 667.744298 944.675751z" p-id="1066"></path></svg>